<svg width="16" height="16" fill="none" xmlns="http://www.w3.org/2000/svg"><g clip-path="url(#clip0)"><rect width="16" height="16" rx="8" fill="#E84D37"/><path d="M7.985 4.701c-.5 0-.992.13-1.426.378a2.845 2.845 0 00-1.046 1.034 2.814 2.814 0 00-.008 2.828.942.942 0 00-.757.627.923.923 0 00.226.952.94.94 0 00.96.225.94.94 0 00.633-.751c.035.02.072.039.108.058.05.308.21.589.45.791a1.334 1.334 0 001.72 0c.24-.202.4-.483.45-.791.037-.02.073-.038.108-.058a.926.926 0 00.633.752.945.945 0 00.961-.226.928.928 0 00-.535-1.579 2.814 2.814 0 00-.007-2.827A2.845 2.845 0 009.41 5.08a2.875 2.875 0 00-1.426-.379zm0-.701c.561 0 1.114.13 1.614.382s.934.617 1.265 1.066a3.517 3.517 0 01.517 3.16 1.618 1.618 0 01.305 2.231 1.654 1.654 0 01-2.234.401 2.042 2.042 0 01-1.47.62 2.056 2.056 0 01-1.472-.62 1.654 1.654 0 01-2.198-.428 1.618 1.618 0 01.277-2.204 3.504 3.504 0 01.517-3.16 3.555 3.555 0 011.265-1.066A3.588 3.588 0 017.985 4z" fill="#fff"/><path d="M5.639 11.894c.278 0 .553-.058.808-.168.037.03.076.057.116.085l-.054.052.394.39.169-.167c.07.027.14.051.213.072l-.238.237.393.39.396-.39-.157-.155a2.368 2.368 0 00.597.001l-.155.154.394.39.393-.39-.236-.235c.072-.02.143-.044.212-.072l.17.166.398-.391-.05-.05c.042-.028.082-.056.122-.087.255.11.53.167.808.168h.06a.344.344 0 01-.016.162l-2.058 5.722a.165.165 0 01-.009.02.128.128 0 01-.01.02l-.023.04-.009.013a.362.362 0 01-.041.046l-.01.008-.04.03-.018.01a.345.345 0 01-.043.02h-.012l-.04.01h-.016a.32.32 0 01-.113 0h-.017l-.04-.01H7.86a.413.413 0 01-.042-.02l-.019-.011a.22.22 0 01-.04-.03l-.01-.007a.449.449 0 01-.042-.046l-.008-.013a.33.33 0 01-.024-.04l-.018-.04-2.063-5.725a.333.333 0 01-.016-.162c.02 0 .035.003.06.003zm1.414 1.566l.394.39.389-.39-.393-.391-.39.39zm1.322.531l-.394-.39-.394.39.394.391.394-.39zm-.788 1.065l.394.39.394-.39-.394-.39-.394.39zm.394-2.519l-.394.39.394.388.394-.39-.394-.388zm.143.922l.394.391.394-.39-.394-.391-.394.39zm1.506-1.416l-.039-.038-.394.39.226.22.207-.572zm-.279.785l-.293-.291-.393.39.389.388.18-.179.117-.308zm-.286.788l-.011-.011-.393.39.197.2.207-.58zm-.421 1.177l.143-.4-.265-.263-.394.39.39.398.126-.125zm-.347.963l.19-.523-.36.355.17.168zm-.308.858l.234-.65-.238-.235-.231.23.235.655zm-.31-.864l.157-.162-.345-.342.187.504zm-.348-.944l.114.112.39-.395-.392-.39-.26.257.148.416zm-.225-.624l.191-.19-.394-.391v.005l.203.576zm-.37-1.031l.171.164.394-.39-.394-.391-.284.287.113.33zm-.19-.537l.219-.218-.394-.39-.032.031.207.577z" fill="#fff"/><path d="M4.5 9c0-1.042.238-2.189.796-3.058C5.838 5.097 6.686 4.5 8 4.5c1.314 0 2.162.597 2.704 1.442.558.869.796 2.016.796 3.058 0 .17-.012.337-.035.5h-6.93A3.534 3.534 0 014.5 9z" stroke="#fff"/><path d="M4.739 9.5h6.522L8 17.654 4.739 9.5z" fill="#fff" fill-opacity=".5" stroke="#fff"/></g><defs><clipPath id="clip0"><rect width="16" height="16" rx="8" fill="#fff"/></clipPath></defs></svg>